<svg width="12" height="7" viewBox="0 0 12 7" fill="none" xmlns="http://www.w3.org/2000/svg">
<g clip-path="url(#clip0_728_18065)">
<path d="M5.99904 4.86106L10.539 0.321058C10.7001 0.161672 10.9175 0.0722656 11.144 0.0722656C11.3706 0.0722656 11.588 0.161672 11.749 0.321058C11.9067 0.484994 11.9948 0.703609 11.9948 0.931058C11.9948 1.15851 11.9067 1.37712 11.749 1.54106L6.60904 6.68106C6.45061 6.83382 6.23912 6.91918 6.01904 6.91918C5.79896 6.91918 5.58746 6.83382 5.42904 6.68106L0.249038 1.54106C0.168916 1.46199 0.105297 1.36779 0.0618754 1.26393C0.0184536 1.16007 -0.00390625 1.04863 -0.00390625 0.936058C-0.00390625 0.823489 0.0184536 0.712041 0.0618754 0.608184C0.105297 0.504326 0.168916 0.410128 0.249038 0.331058C0.328109 0.250935 0.422307 0.187316 0.526164 0.143895C0.630022 0.100473 0.741469 0.0781131 0.854038 0.0781131C0.966608 0.0781131 1.07806 0.100473 1.18191 0.143895C1.28577 0.187316 1.37997 0.250935 1.45904 0.331058L5.99904 4.86106Z" fill="black"/>
</g>
<defs>
<clipPath id="clip0_728_18065">
<rect width="12" height="6.86" fill="white" transform="translate(0 0.0703125)"/>
</clipPath>
</defs>
</svg>
