<svg width="1046" height="95" viewBox="0 0 1046 95" fill="none" xmlns="http://www.w3.org/2000/svg">
<g clip-path="url(#clip0_728_17706)">
<g clip-path="url(#clip1_728_17706)">
<g clip-path="url(#clip2_728_17706)">
<path fill-rule="evenodd" clip-rule="evenodd" d="M65.8296 80.3837C65.3418 78.064 63.4501 77.4467 61.3295 77.2476C54.4698 76.6104 53.2552 81.7576 53.2552 83.9181C53.2552 87.6317 54.3305 90.6981 61.0707 90.6981C62.3052 90.6981 65.74 89.4237 65.74 87.3429H75.4172C75.0289 93.5157 64.6648 94.9991 60.1547 94.9991C50.7961 94.9991 42.7815 93.2468 43.1698 84.0475C43.4486 77.4467 49.6711 72.8172 62.0862 73.0959C68.9857 73.2552 75.6064 75.4157 75.6363 80.4136L65.8296 80.3837Z" fill="#02033B"/>
<path fill-rule="evenodd" clip-rule="evenodd" d="M162.822 80.3837C162.344 78.064 160.452 77.4467 158.331 77.2476C151.472 76.6104 150.257 81.7576 150.257 83.9181C150.257 87.6317 151.332 90.6981 158.073 90.6981C159.307 90.6981 162.732 89.4237 162.732 87.3429H172.429C172.031 93.5157 161.677 94.9991 157.157 94.9991C147.798 94.9991 139.783 93.2468 140.172 84.0475C140.451 77.4467 146.673 72.8172 159.088 73.0959C165.988 73.2552 172.608 75.4157 172.638 80.4136L162.822 80.3837Z" fill="#02033B"/>
<path fill-rule="evenodd" clip-rule="evenodd" d="M77.3086 73.5137H89.883L100.616 88.6069H100.695V73.5137H108.76V94.4212H96.7128L85.4625 79.3678H85.3729V94.4412H77.3086V73.5137Z" fill="#02033B"/>
<path fill-rule="evenodd" clip-rule="evenodd" d="M111.248 73.5137H126.511C133.858 73.5137 138.169 75.5646 138.169 78.6709C138.169 80.5028 136.367 82.7727 132.335 83.4398V83.4995C137.183 83.7783 138.975 86.8547 138.975 88.6965C138.975 92.3902 134.764 94.4412 126.56 94.4412H111.248V73.5137ZM120.079 81.6378H122.618C126.521 81.6378 128.591 81.3291 128.591 79.7063C128.591 78.0835 126.869 77.3866 123.364 77.3866H120.089V81.6378H120.079ZM120.079 90.0506H122.618C127.317 90.0506 129.039 89.5528 129.039 87.9299C129.039 86.3071 126.869 85.6202 123.355 85.6202H120.089V90.0506H120.079Z" fill="#02033B"/>
<path fill-rule="evenodd" clip-rule="evenodd" d="M151.321 41.4262L115.33 65.4997L127.456 36.6771L133.201 23.2664C135.451 18.9655 139.862 16.2176 144.71 16.0882C149.27 16.0583 153.521 18.388 155.941 22.2509C158.589 26.2333 158.738 32.6848 156.09 36.6871C154.845 38.5787 153.223 40.1916 151.331 41.4361" fill="#02033B"/>
<path fill-rule="evenodd" clip-rule="evenodd" d="M133.401 18.6966L115.599 60.7805L114.843 56.1908L109.456 21.6933C109.198 19.7021 110.104 17.7408 111.786 16.6357L114.335 15.1124C114.484 14.5848 113.738 14.4055 113.389 14.2363L108.411 14.1865C107.764 7.02816 113.041 0.706108 120.199 0.0490128C122.3 -0.140151 124.42 0.178441 126.362 0.994831C131.19 3.12541 134.346 7.8545 134.466 13.1312C134.466 15.0328 134.108 16.9244 133.401 18.6866" fill="#02033B"/>
<path fill-rule="evenodd" clip-rule="evenodd" d="M99.2122 60.9302L81.6896 18.7467C79.788 14.0076 80.6044 8.6115 83.8202 4.64901C87.0858 0.81596 92.2629 -0.796909 97.1314 0.487413C101.651 1.82151 105.156 5.40567 106.38 9.95555C106.789 11.7078 106.898 13.5098 106.699 15.3019L99.2122 60.9302Z" fill="#02033B"/>
<path fill-rule="evenodd" clip-rule="evenodd" d="M61.757 39.9019C58.2326 36.935 56.4704 32.3652 57.0976 27.8054C57.7846 22.7278 61.2393 18.4467 66.058 16.6945C70.7174 15.1812 75.8348 16.4257 79.2795 19.9103C80.6037 21.2444 81.6491 22.8373 82.3559 24.5796L99.2811 65.5684L61.757 39.9019Z" fill="#02033B"/>
<path fill-rule="evenodd" clip-rule="evenodd" d="M57.9055 69.8514C53.3656 69.4133 49.3832 66.6256 47.4119 62.5039C45.2116 57.8345 45.7293 52.3388 48.7659 48.1573C52.0315 44.2446 56.7307 42.2733 61.5195 43.249C63.3415 43.5875 65.0838 44.3143 66.617 45.3597L103.056 69.8514H57.9055Z" fill="#02033B"/>
<path fill-rule="evenodd" clip-rule="evenodd" d="M156.838 69.8514C161.388 69.4233 165.38 66.6256 167.331 62.4939C169.532 57.8246 169.014 52.3289 165.987 48.1573C162.722 44.2446 158.023 42.2733 153.224 43.249C151.402 43.5975 149.66 44.3143 148.126 45.3597L111.688 69.8514H156.838Z" fill="#02033B"/>
</g>
</g>
<g clip-path="url(#clip3_728_17706)">
<g clip-path="url(#clip4_728_17706)">
<path fill-rule="evenodd" clip-rule="evenodd" d="M328.645 38.6893C328.965 38.5293 329.265 38.3393 329.545 38.1293H338.875C338.655 39.2393 338.375 40.3493 338.045 41.4393C337.045 42.4393 335.915 43.3693 334.815 44.2993C333.965 47.5493 333.035 50.7293 332.215 54.0093C330.835 55.0093 329.555 56.0093 328.215 57.0093C326.815 56.9293 325.495 57.0093 323.995 57.0093C324.075 56.2693 324.395 55.4593 324.485 54.5993C324.055 54.7993 323.635 55.0393 323.245 55.3193C322.855 55.5693 322.465 55.7993 322.045 56.0293C320.445 56.9693 318.585 57.3493 316.745 57.0893C315.465 56.8993 314.315 56.2093 313.545 55.1693C311.775 56.5393 308.295 57.7993 305.415 56.8993C303.575 56.3193 302.585 54.6193 303.005 52.1993C302.315 52.3093 301.625 52.3693 300.935 52.3893C300.705 52.9393 300.505 53.5093 300.335 54.0793C299.335 54.7893 298.335 55.6193 297.335 56.4193C297.035 56.7093 296.695 56.9593 296.335 57.1693C295.595 57.2393 294.855 57.2393 294.115 57.1693C293.375 57.2293 292.635 57.2293 291.895 57.1693C293.095 52.6893 294.315 47.6893 295.645 43.0293C295.755 42.3693 295.935 41.7293 296.175 41.1093C296.425 40.8093 296.715 40.5393 297.035 40.3193C297.955 39.5593 298.925 38.9193 299.785 38.1293H303.785C305.125 38.1293 306.525 37.9993 307.695 38.1293C308.125 38.2193 308.525 38.3793 308.895 38.6193C309.145 38.9793 309.405 39.3493 309.645 39.7093C310.535 39.1393 311.465 38.6393 312.435 38.2093C313.605 37.8593 314.815 37.7093 316.035 37.7893C317.595 37.8493 319.035 38.4593 319.575 39.7093C320.815 38.5993 322.365 37.8993 324.015 37.7093C325.615 37.5093 327.245 37.8393 328.645 38.6493M328.115 39.0693C327.145 38.4793 326.015 38.1993 324.875 38.2493C324.225 38.2893 323.575 38.4193 322.955 38.6293C321.755 38.8693 320.695 39.5393 319.955 40.5093C319.365 41.4893 319.155 42.6493 319.355 43.7793C319.725 44.6193 320.235 45.3793 320.875 46.0393C321.445 46.7993 322.135 47.4593 322.605 48.1093C322.795 48.3493 322.945 48.6093 323.055 48.8993C323.365 49.6293 323.025 50.4693 322.305 50.7793C322.115 50.8593 321.915 50.8993 321.715 50.8893C321.605 50.8893 321.575 50.7893 321.525 50.7793C321.475 50.7693 321.385 50.7793 321.295 50.7793C320.395 50.3593 320.765 49.4693 320.925 48.5193H317.535C317.205 49.3693 317.015 50.2793 316.975 51.1893C317.075 53.0293 318.845 53.8193 320.695 53.8293C322.035 53.8893 323.355 53.5393 324.495 52.8293C325.055 52.5293 325.565 52.1293 325.995 51.6593C326.775 50.6293 327.155 49.3393 327.055 48.0493C326.815 46.8593 326.165 45.7993 325.215 45.0493C324.525 44.4693 323.895 43.8093 323.335 43.0993C323.055 42.6293 322.975 42.0793 323.115 41.5493C323.395 41.1293 323.895 40.9093 324.395 40.9893C325.555 41.1793 325.185 42.7493 324.995 43.5493C325.995 43.6293 327.225 43.5493 328.155 43.5493C328.645 42.2493 329.265 40.0393 328.155 39.0293M311.295 39.3293C310.945 39.5493 310.635 39.8093 310.365 40.1193C310.135 40.3193 309.935 40.5493 309.765 40.7993C309.615 41.1993 309.505 41.6193 309.425 42.0393C308.705 44.5393 308.005 47.0393 307.355 49.4493C307.215 49.8693 307.105 50.2993 307.015 50.7293C306.795 52.0893 307.675 53.3793 309.015 53.6693C311.405 54.2493 314.175 53.6193 315.455 52.2293C315.835 51.8193 316.155 51.3493 316.385 50.8393C316.655 50.1893 316.815 49.3093 317.065 48.4693C317.545 46.8993 318.065 45.2593 318.425 43.6893C318.675 42.8793 318.875 42.0493 319.025 41.2093C319.135 40.5793 319.025 39.9293 318.725 39.3693C318.225 38.8993 317.615 38.5793 316.955 38.4293C316.095 38.2593 315.225 38.2193 314.355 38.3093C313.265 38.4293 312.215 38.7693 311.265 39.3093M330.005 38.7093C329.755 39.4793 329.565 40.2793 329.435 41.0793H331.585C330.585 45.1493 329.415 49.0193 328.425 53.0793C329.495 53.1393 330.555 53.1393 331.625 53.0793C332.775 49.0793 333.775 45.1693 334.895 41.1493C335.695 41.2093 336.505 41.2093 337.305 41.1493C337.505 40.3393 337.805 39.4193 337.945 38.6693C334.945 38.6693 332.535 38.6193 330.005 38.6693M306.735 47.6693C307.205 47.1093 307.545 46.4593 307.735 45.7493C308.175 44.6493 308.505 43.5193 308.735 42.3593C308.895 41.8193 309.005 41.2593 309.045 40.6893C309.135 39.8293 308.595 39.0293 307.765 38.7793C307.155 38.7393 306.535 38.7393 305.925 38.7793H300.355C299.055 43.5993 297.715 48.3693 296.515 53.1893C297.605 53.2493 298.695 53.2493 299.785 53.1893C300.215 51.7193 300.605 50.1893 301.065 48.7893C303.415 48.9393 305.415 48.9593 306.745 47.7393" fill="#02033B"/>
<path fill-rule="evenodd" clip-rule="evenodd" d="M262.305 38.249H262.455V38.469H262.305C262.255 38.389 262.255 38.289 262.305 38.209" fill="#02033B"/>
<path fill-rule="evenodd" clip-rule="evenodd" d="M310.765 50.7789C310.765 50.6489 310.705 50.5289 310.615 50.4389C310.705 49.4989 310.905 48.5789 311.215 47.6889C311.615 46.2589 311.995 44.8889 312.415 43.3289C312.525 42.6089 312.815 41.9189 313.245 41.3289C313.835 40.8789 315.245 40.8289 315.355 41.7489C315.325 42.1089 315.255 42.4589 315.125 42.7989C314.725 44.5089 314.285 46.1889 313.815 47.8789C313.625 48.5589 313.515 49.2589 313.285 49.8789C313.195 50.1189 313.085 50.3489 312.945 50.5589C312.335 51.0989 311.455 51.1689 310.765 50.7489" fill="#02033B"/>
<path fill-rule="evenodd" clip-rule="evenodd" d="M266.445 50.5499C265.895 50.9799 265.155 51.0699 264.525 50.7699C264.045 50.1799 264.645 48.8599 264.865 48.0999C265.405 46.2299 265.865 44.5199 266.335 42.6799C266.405 42.3199 266.505 41.9699 266.635 41.6299C266.955 41.0499 268.705 40.7199 268.855 41.6299C268.835 42.0399 268.765 42.4399 268.635 42.8299C268.405 43.9199 267.985 45.1399 267.725 46.1799C267.405 47.6599 266.985 49.1299 266.455 50.5499" fill="#02033B"/>
<path fill-rule="evenodd" clip-rule="evenodd" d="M301.814 46.1087C302.234 44.5087 302.674 42.9187 303.124 41.3287C303.874 41.1387 305.184 41.0787 305.314 41.8187C305.324 42.0887 305.304 42.3487 305.234 42.6087C305.014 43.7287 304.654 44.8187 304.144 45.8487C303.464 46.3187 302.584 46.4187 301.814 46.1087Z" fill="#02033B"/>
<path fill-rule="evenodd" clip-rule="evenodd" d="M276.375 44.7891C276.675 43.5991 277.035 42.4391 277.465 41.2891C278.385 41.4291 279.755 40.8591 279.535 42.3491C279.435 43.0191 279.005 43.8591 278.855 44.4491C278.455 44.9691 277.095 44.8391 276.375 44.7891Z" fill="#02033B"/>
<path fill-rule="evenodd" clip-rule="evenodd" d="M296.135 38.1297H291.135C290.835 38.3997 290.495 38.6697 290.135 38.9197C289.845 39.1997 289.505 39.4297 289.135 39.5997C289.245 39.1097 289.335 38.6197 289.395 38.1297H284.465C284.195 38.4097 283.895 38.6497 283.565 38.8497C283.235 38.5797 282.865 38.3697 282.475 38.2097C281.815 38.1297 281.135 38.1297 280.475 38.2097H273.855C273.515 38.5097 273.165 38.7797 272.795 39.0397C271.265 37.4797 267.525 37.4397 265.315 38.2897C265.145 38.2897 265.315 38.0597 265.055 38.1397H260.195C259.435 38.6897 258.875 39.3197 258.015 39.7897C257.945 39.3897 258.015 38.5997 257.905 38.1297H252.905C252.605 38.4097 252.275 38.6397 251.905 38.8097C251.905 38.5197 252.055 38.3897 252.085 38.1297H247.665C247.115 38.5897 246.515 38.9897 245.875 39.3297C245.855 38.9297 245.825 38.5297 245.765 38.1297H243.565C242.845 38.0497 242.105 38.0497 241.385 38.1297C240.875 38.2797 240.545 39.0097 239.995 39.0697C239.935 38.7497 239.895 38.4197 239.875 38.0897C235.535 38.1097 229.325 37.9197 224.675 38.1297C224.225 38.0797 223.775 38.0497 223.325 38.0597C222.845 38.1597 222.265 39.0597 221.775 39.0597C221.695 38.7297 221.655 38.3597 221.555 38.0597H216.875C215.815 38.7997 214.875 39.6897 213.875 40.4597C213.495 40.7797 213.075 40.9397 212.875 41.2897C212.745 41.7497 212.655 42.2197 212.595 42.6897C212.295 43.7697 212.065 44.6897 211.805 45.6897C210.875 49.4897 209.675 53.4897 208.875 57.1397H213.055C213.745 56.5597 214.465 56.0297 215.235 55.5497C215.375 56.0397 215.355 56.5497 215.495 57.1397H218.495C218.825 57.1697 219.165 57.1697 219.495 57.1397C219.825 57.0597 219.955 56.6397 220.245 56.5697C220.455 56.6897 220.525 56.9497 220.665 57.1397C222.855 56.9897 225.405 57.1897 227.095 57.1397C227.665 57.1897 228.225 57.1897 228.795 57.1397C229.105 56.9797 229.395 56.7697 229.655 56.5397C229.915 56.2897 230.215 56.0997 230.555 55.9697C230.555 56.4197 230.415 56.8197 230.445 57.1397H233.795C233.985 57.1397 234.165 57.1397 234.355 57.1397C234.835 57.0797 235.355 56.5297 235.745 56.2697C236.095 55.9297 236.525 55.6697 236.995 55.5197C236.905 56.0697 236.735 56.5197 236.655 57.0997H238.605C239.315 57.1797 240.045 57.1797 240.755 57.0997C241.075 57.0297 241.485 56.5697 241.805 56.2997C242.875 55.4897 244.075 54.6897 244.985 53.9297C246.355 50.9297 247.845 47.8497 249.245 44.9297C249.445 44.5097 249.525 43.9897 249.915 43.6897C250.165 45.3997 250.385 47.1097 250.555 48.6897C250.675 49.2397 250.735 49.7897 250.745 50.3497C250.635 50.9097 250.485 51.4597 250.295 51.9997L248.935 57.0497H253.525C254.575 56.3297 255.465 55.4697 256.525 54.7897C257.205 56.2197 258.625 57.1497 260.215 57.1997C261.755 57.3097 263.295 56.9797 264.655 56.2597C265.215 55.9097 265.815 55.6097 266.425 55.3597C266.375 55.9597 266.225 56.4597 266.165 57.0497H270.455C270.965 56.6597 271.505 56.3097 272.065 55.9997C272.065 56.4397 271.895 56.6197 271.885 56.9997C273.965 57.0597 276.375 56.9997 278.655 56.9997C279.445 57.0797 280.235 57.0797 281.025 56.9997C281.395 56.8297 281.725 56.5997 282.025 56.3197C282.385 56.0697 282.635 55.7197 283.025 55.6497C283.235 56.0797 283.405 56.5297 283.515 56.9997H288.515C289.855 55.9497 291.125 54.8197 292.515 53.7997C291.845 50.9497 291.205 48.0797 290.595 45.1797C292.395 43.1097 294.175 40.7397 295.875 38.5797C295.955 38.4797 296.185 38.2997 296.095 38.1297M219.705 53.2197C219.305 50.4897 219.125 47.7697 218.705 45.0897C217.875 47.6897 217.215 50.6097 216.325 53.2197C215.425 53.2197 214.415 53.2697 213.575 53.2197C214.725 48.3197 216.035 43.6297 217.225 38.8097C217.245 38.7497 217.285 38.7097 217.345 38.6897H221.065C221.365 40.9997 221.585 43.3897 221.935 45.6897C222.705 43.4197 223.265 40.9497 224.045 38.6897C224.985 38.6497 225.935 38.6797 226.875 38.7697C225.555 43.6897 224.295 48.3997 222.875 53.2197H219.705ZM244.395 53.2197C243.355 53.2797 242.315 53.2797 241.275 53.2197C241.455 50.4497 241.765 47.8597 241.985 45.0597C241.585 45.6897 241.245 46.3597 240.985 47.0597C239.985 49.0597 239.115 51.2097 238.165 53.2697H234.965C235.045 49.2697 235.435 45.1697 235.605 41.2697H231.315C230.865 42.2697 230.615 43.5097 230.225 44.5797C231.345 44.6397 232.845 44.5797 234.135 44.5797C234.025 45.3497 233.675 46.1897 233.495 47.0297H229.625C229.205 48.1897 228.935 49.5097 228.575 50.7197C229.975 50.7197 231.485 50.6697 232.825 50.7197C232.565 51.5497 232.275 52.3497 231.995 53.1597H224.545C225.735 48.2597 227.035 43.4697 228.315 38.6697C231.815 38.6097 235.615 38.6197 239.315 38.6697C239.155 41.0297 238.945 43.4497 238.715 45.7397C238.995 45.5597 239.075 45.1997 239.205 44.9197C240.205 42.9197 241.135 40.7297 242.105 38.6697H245.305C245.185 41.1197 244.855 43.4797 244.735 45.8597C246.005 43.6897 247.075 41.1297 248.275 38.7397C249.135 38.7397 250.165 38.6897 251.205 38.7397C248.945 43.5697 246.675 48.3997 244.395 53.2197ZM259.145 46.4497C258.875 46.7897 258.635 47.1597 258.425 47.5397C258.265 48.0397 258.145 48.5397 258.045 49.0497C257.695 50.3797 257.245 51.8197 256.805 53.2997H253.605C253.905 51.3897 254.605 49.4697 255.035 47.5797C255.055 47.1097 255.005 46.6397 254.875 46.1897C254.555 43.6897 254.195 41.2797 253.875 38.7697C255.095 38.7097 255.875 38.7697 257.255 38.7697C257.395 40.4797 257.545 42.2697 257.635 43.9697C258.765 42.4297 259.785 40.4597 260.905 38.7697C261.855 38.7697 263.125 38.7197 264.185 38.7697C262.615 41.3197 260.795 43.7697 259.135 46.4097M269.935 50.8097C269.515 51.6697 268.865 52.3997 268.065 52.9197C266.285 53.9197 264.185 54.1597 262.225 53.5997C261.765 53.4297 260.765 52.9097 260.615 52.2797C260.295 50.9997 260.935 49.5897 261.205 48.4097C261.645 46.5097 262.205 44.4097 262.755 42.4697C262.905 41.7297 263.195 41.0197 263.625 40.3897C264.565 39.0797 266.065 38.2697 267.685 38.2097C269.955 37.9997 272.175 38.2097 272.535 40.0497C272.585 40.3797 272.585 40.7197 272.535 41.0497C272.395 41.8997 272.195 42.7497 271.935 43.5697C271.515 45.1397 271.075 46.8397 270.625 48.4597C270.375 49.3497 270.195 50.2497 269.945 50.8697M280.065 53.2797C278.875 53.2797 277.945 53.3397 276.605 53.2797C276.755 52.1097 277.225 50.5497 277.545 49.1697C277.645 48.7197 277.915 48.1697 277.805 47.8197C277.585 47.1797 276.395 47.4797 275.665 47.4097C274.985 49.2797 274.525 51.4097 273.925 53.3197C272.805 53.2697 271.635 53.3197 270.615 53.3197C271.135 50.8497 271.875 48.4597 272.495 46.0497C273.115 43.6397 273.685 41.2097 274.415 38.8597H279.765C280.765 38.8597 282.285 38.7697 282.885 39.1997C283.995 40.0097 283.295 41.5897 282.955 42.8897C282.815 43.5097 282.635 44.1297 282.425 44.7297C282.095 45.5497 281.195 45.8197 280.425 46.2297C280.995 46.5297 281.645 46.6297 281.585 47.5497C281.505 48.0597 281.375 48.5697 281.215 49.0597C280.855 50.3697 280.295 52.1797 280.005 53.3797M292.405 42.0497C291.585 43.0497 290.775 44.1497 289.965 45.2097C290.525 47.9497 291.125 50.4897 291.655 53.2097C290.135 53.2897 289.035 53.2797 287.855 53.2097C287.435 51.0797 287.035 48.9397 286.615 46.8097C285.865 48.8097 285.325 51.0697 284.695 53.2097H281.115C281.365 52.0197 281.675 50.8497 282.055 49.6897C282.425 48.5097 282.685 47.2997 283.055 46.1097C283.425 44.9197 283.795 43.7097 284.055 42.4997C284.315 41.2897 284.755 39.9897 285.115 38.8497C286.255 38.7597 287.395 38.7597 288.535 38.8497C288.135 40.4897 287.715 41.9897 287.335 43.5497C287.765 43.2197 288.135 42.8297 288.455 42.3897C289.515 41.2397 290.575 39.9597 291.655 38.8097C292.705 38.7497 293.765 38.7497 294.815 38.8097C294.095 39.9597 293.225 40.9897 292.405 42.0497Z" fill="#02033B"/>
</g>
</g>
<g clip-path="url(#clip5_728_17706)">
<g clip-path="url(#clip6_728_17706)">
<path d="M374.875 68.7602H417.395V26.2402H374.875V68.7602ZM394.895 36.4802C394.225 34.3402 393.495 33.6502 389.725 33.6502H386.815C385.935 33.6502 385.745 33.8402 385.745 34.6302V40.7002H387.165C390.165 40.7002 390.805 40.1502 391.165 38.1402H391.895V44.9202H391.165C390.765 42.6602 389.635 42.0902 387.165 42.0902H385.735V48.4202C385.735 50.4302 386.275 50.6602 388.565 50.7502V51.4802H379.485V50.7302C381.375 50.6502 381.915 50.4202 381.915 48.4002V35.3102C381.915 33.3002 381.375 33.0702 379.545 32.9902V32.2602H395.595L395.695 36.4902H394.895V36.4802ZM413.135 36.4802C412.525 34.4102 411.625 33.6502 409.595 33.6502H407.225V48.4002C407.225 50.4102 407.745 50.6402 409.925 50.7302V51.4802H400.665V50.7502C402.825 50.6702 403.365 50.4402 403.365 48.4202V33.6702H401.005C398.995 33.6702 398.075 34.4202 397.465 36.5002H396.505L396.905 32.2702H413.745L414.105 36.5002H413.135V36.4802Z" fill="#02033B"/>
<path d="M426.754 43.9304C426.754 44.9304 427.034 45.0104 428.144 45.0504V45.4104H423.724V45.0504C424.644 45.0104 424.924 44.8904 424.924 43.9304V37.5604C424.924 36.5604 424.644 36.4804 423.774 36.4404V36.0804H431.584L431.624 38.1504H431.224C430.904 37.1104 430.544 36.8004 428.714 36.8004H427.284C426.844 36.8004 426.764 36.8804 426.764 37.2804V40.2304H428.364C429.834 40.2304 430.154 39.9504 430.314 38.9904H430.674V42.3004H430.314C430.114 41.1804 429.554 40.9104 428.364 40.9104H426.764V43.9404L426.754 43.9304ZM435.954 43.9304C435.954 44.9304 436.234 45.0104 437.344 45.0504V45.4104H432.734V45.0504C433.854 45.0104 434.124 44.8904 434.124 43.9304V37.5604C434.124 36.5604 433.884 36.4804 432.734 36.4404V36.0804H437.354V36.4404C436.234 36.4804 435.964 36.6004 435.964 37.5604V43.9304H435.954ZM446.984 37.8004C446.984 36.8804 446.744 36.5204 445.714 36.4104V36.0504H449.024V36.4104C447.984 36.5304 447.754 36.8904 447.754 37.8004V45.6104H447.274L440.904 38.2404V43.6604C440.904 44.5804 441.144 44.9404 442.174 45.0504V45.4104H438.864V45.0504C439.904 44.9304 440.134 44.5704 440.134 43.6604V37.3704C439.894 36.8604 439.414 36.5104 438.864 36.4104V36.0504H441.414L446.994 42.5004V37.8004H446.984ZM451.964 42.0604L453.354 38.3604L454.744 42.0604H451.964ZM458.654 45.4104V45.0504C457.934 45.0504 457.774 44.7704 457.414 43.9004L454.104 35.8504H453.664L450.244 44.1804C450.074 44.6804 449.614 45.0304 449.094 45.0604V45.4204H452.084V45.0604C451.444 45.0604 451.124 44.9004 451.124 44.4604C451.244 43.8704 451.414 43.3004 451.644 42.7504H455.034C455.284 43.3004 455.464 43.8704 455.594 44.4604C455.594 44.9004 455.234 45.0604 454.594 45.0604V45.4204H458.654V45.4104ZM467.734 37.7804C467.734 36.8604 467.494 36.5004 466.464 36.3904V36.0304H469.774V36.3904C468.734 36.5104 468.504 36.8704 468.504 37.7804V45.5904H468.024L461.664 38.2204V43.6404C461.664 44.5604 461.904 44.9204 462.934 45.0304V45.3904H459.624V45.0304C460.664 44.9104 460.894 44.5504 460.894 43.6404V37.3504C460.654 36.8404 460.174 36.4904 459.624 36.3904V36.0304H462.174L467.754 42.4804V37.7804H467.734ZM479.554 43.2004C478.764 44.7604 477.124 45.7204 475.374 45.6304C472.344 45.6304 470.514 43.6404 470.514 40.6504C470.544 37.9604 472.744 35.8004 475.434 35.8304H475.454C476.334 35.9304 477.204 36.1204 478.044 36.3904C478.324 36.3904 478.404 36.2304 478.644 35.8304H479.124L479.324 38.9404H478.924C478.554 37.5004 477.264 36.4704 475.774 36.4304C473.584 36.4304 472.624 38.8204 472.624 40.6104C472.624 43.1204 473.694 44.8304 476.054 44.8304C477.394 44.7804 478.614 44.0404 479.284 42.8804L479.564 43.2004H479.554ZM484.054 43.9204C484.054 44.9204 484.334 45.0004 485.444 45.0404V45.4004H480.834V45.0404C481.954 45.0004 482.224 44.8804 482.224 43.9204V37.5504C482.224 36.5504 481.944 36.4704 480.834 36.4304V36.0704H485.454V36.4304C484.334 36.4704 484.064 36.5904 484.064 37.5504V43.9204H484.054ZM489.264 42.0504L490.654 38.3504L492.044 42.0504H489.264ZM495.954 45.4004V45.0404C495.234 45.0404 495.074 44.7604 494.714 43.8904L491.404 35.8404H490.964L487.544 44.1704C487.374 44.6704 486.914 45.0204 486.394 45.0504V45.4104H489.384V45.0504C488.744 45.0504 488.424 44.8904 488.424 44.4504C488.544 43.8604 488.714 43.2904 488.944 42.7404H492.334C492.574 43.2904 492.764 43.8604 492.894 44.4504C492.894 44.8904 492.534 45.0504 491.894 45.0504V45.4104H495.954V45.4004ZM496.794 45.4004V45.0404C497.674 45.0004 497.944 44.8804 497.944 43.9204V37.5504C497.944 36.5504 497.664 36.4704 496.794 36.4304V36.0704H501.094V36.4304C500.054 36.4704 499.824 36.5904 499.824 37.5504V44.1204C499.824 44.6804 499.984 44.8804 501.024 44.8804C502.694 44.8804 503.694 44.5604 504.484 42.9304H504.844L504.204 45.4404H496.794V45.4004ZM425.734 60.1404C426.804 60.1004 427.044 59.9804 427.044 59.0204V51.8504H425.894C424.824 51.8504 424.384 52.2904 424.064 53.5604H423.664L423.904 51.1704H432.114L432.354 53.5604H431.954C431.634 52.2804 431.234 51.8504 430.124 51.8504H428.974V59.0204C428.974 60.0204 429.254 60.1004 430.294 60.1404V60.5004H425.794V60.1404H425.734ZM436.534 59.0204C436.534 60.0204 436.814 60.1004 437.924 60.1404V60.5004H433.304V60.1404C434.424 60.1004 434.694 59.9804 434.694 59.0204V52.6504C434.694 51.6504 434.414 51.5704 433.304 51.5304V51.1704H437.934V51.5304C436.814 51.5704 436.544 51.6904 436.544 52.6504V59.0204H436.534ZM447.724 51.1304H450.954V51.4904C450.074 51.5304 449.804 51.6504 449.804 52.6104V58.9804C449.804 59.9804 450.084 60.0604 450.954 60.1004V60.4604H446.724V60.1004C447.644 60.0604 447.924 59.9404 447.924 58.9804V52.4104H447.884L444.774 60.5804H444.334L441.264 52.4104H441.224V58.7004C441.224 59.6204 441.464 59.9804 442.494 60.0904V60.4504H439.184V60.0904C440.224 59.9704 440.454 59.6104 440.454 58.7004V52.3304C440.454 51.6904 440.174 51.4504 439.184 51.4504V51.0904H442.574L445.044 57.5804L447.714 51.1304H447.724ZM452.264 60.4904V60.1304C453.144 60.0904 453.414 59.9704 453.414 59.0104V52.6404C453.414 51.6404 453.134 51.5604 452.264 51.5204V51.1604H460.074L460.114 53.2304H459.714C459.394 52.1904 459.034 51.8804 457.204 51.8804H455.774C455.334 51.8804 455.254 51.9604 455.254 52.3604V55.3104H456.844C458.314 55.3104 458.634 55.0304 458.794 54.0704H459.154V57.3804H458.794C458.594 56.2604 458.034 56.0304 456.844 56.0304H455.254V59.2604C455.254 59.8204 455.414 60.0204 457.084 60.0204C458.754 60.0204 459.754 59.7004 460.544 58.0704H460.904L460.264 60.5804H452.254V60.5004H452.264V60.4904ZM462.144 57.5204H462.504C462.884 58.8804 464.044 59.8904 465.454 60.0704C466.264 60.1404 466.974 59.5504 467.044 58.7404V58.5204C467.044 56.3704 462.184 55.9704 462.184 53.3004C462.294 51.9204 463.464 50.8704 464.854 50.9104C465.704 50.9904 466.544 51.1504 467.364 51.3904C467.624 51.3904 467.834 51.1704 467.844 50.9104H468.204V53.9004H467.844C467.604 52.6104 466.524 51.6504 465.214 51.5504C464.504 51.4704 463.874 51.9704 463.784 52.6804V52.8704C463.784 54.7804 468.644 54.8204 468.644 58.1304C468.604 59.6004 467.374 60.7704 465.904 60.7304H465.734C464.104 60.7304 463.664 60.1704 463.024 60.1704C462.784 60.1704 462.624 60.3304 462.544 60.6504H462.064L462.144 57.5404V57.5204Z" fill="#02033B"/>
</g>
</g>
<g clip-path="url(#clip7_728_17706)">
<g clip-path="url(#clip8_728_17706)">
<path fill-rule="evenodd" clip-rule="evenodd" d="M669.264 37.3699C669.344 34.8699 667.374 32.7699 664.874 32.6899H664.664C662.864 32.6899 660.974 33.6899 661.264 36.1899C661.444 37.7799 663.924 38.3499 665.264 38.7799C669.264 40.0299 670.844 41.5499 670.844 44.5099C670.844 47.4699 668.384 49.5099 663.994 49.5099C661.844 49.5099 659.454 49.0799 657.994 47.7599L657.484 43.4699H657.894C658.534 47.2899 660.184 48.7899 664.144 48.8899C666.674 48.9499 667.424 47.5099 667.414 45.7299C667.404 43.9499 665.484 43.1799 663.214 42.4299C659.964 41.4299 657.964 40.1499 657.964 37.0399C657.964 33.9299 660.714 31.9199 664.784 31.9199C666.464 31.9699 668.114 32.4299 669.584 33.2599V37.3299L669.264 37.3699Z" fill="#02033B"/>
<path fill-rule="evenodd" clip-rule="evenodd" d="M655.056 33.5804C655.766 33.1004 656.436 32.5704 657.056 31.9704C657.746 31.3904 658.186 30.5704 658.276 29.6704C658.276 29.5004 658.226 29.3204 658.126 29.1804C658.016 29.0504 657.846 28.9804 657.676 28.9904C657.466 29.0304 657.246 29.0504 657.036 29.0604C656.446 29.0804 655.866 28.8404 655.456 28.4104C655.046 27.9604 654.836 27.3604 654.876 26.7504C654.836 26.0804 655.076 25.4304 655.526 24.9404C656.006 24.4604 656.666 24.2004 657.346 24.2404C658.156 24.2204 658.936 24.5604 659.476 25.1604C660.016 25.7704 660.316 26.5504 660.346 27.3604C660.316 28.9904 659.646 30.5404 658.476 31.6704C657.546 32.6004 656.486 33.3904 655.326 34.0104L655.056 33.5804Z" fill="#02033B"/>
<path fill-rule="evenodd" clip-rule="evenodd" d="M618.046 57.4499V63.0099C618.046 64.6899 618.796 65.2099 619.526 65.2099C619.996 65.1799 620.446 65.0799 620.876 64.8899L620.986 65.2399C620.176 65.7499 619.246 66.0299 618.286 66.0599C617.496 66.0599 615.546 65.7799 615.546 63.8699V57.4499H614.006V56.8299H615.816L617.526 54.1699H618.046V56.8299H620.786V57.4599H618.046V57.4499Z" fill="#02033B"/>
<path fill-rule="evenodd" clip-rule="evenodd" d="M612.536 59.47C612.586 58.12 611.536 56.99 610.186 56.94H610.166H610.046C609.146 56.83 608.316 57.47 608.206 58.38C608.206 58.38 608.206 58.39 608.206 58.4C608.186 58.54 608.186 58.69 608.206 58.83C608.306 59.69 609.656 60 610.386 60.23C612.546 60.91 613.386 61.73 613.386 63.33C613.386 64.93 612.056 66.05 609.686 66.05C608.526 66.11 607.386 65.75 606.456 65.05L606.176 62.74H606.396C606.746 64.8 607.636 65.61 609.776 65.67C610.596 65.82 611.376 65.28 611.536 64.46C611.556 64.29 611.556 64.13 611.536 63.96C611.536 62.96 610.536 62.59 609.266 62.18C607.506 61.62 606.426 60.94 606.426 59.27C606.426 57.6 607.916 56.5 610.106 56.5C611.016 56.53 611.906 56.78 612.706 57.22V59.42L612.536 59.47Z" fill="#02033B"/>
<path fill-rule="evenodd" clip-rule="evenodd" d="M651.325 32.2402C649.985 32.2402 648.325 32.9802 646.605 35.1502V32.2402L640.805 33.0902V33.5702C640.805 33.5702 642.085 33.4202 642.605 33.3802V47.1802C642.605 47.7502 642.515 48.4802 641.545 48.4802H640.605V49.1202H648.875V48.4902H647.875C647.245 48.5702 646.675 48.1202 646.595 47.4902C646.575 47.3802 646.575 47.2802 646.595 47.1702V37.5302C646.815 35.4102 648.145 34.1902 648.755 34.1802C649.925 34.1802 649.885 35.0102 650.925 35.5002C651.795 35.9302 652.845 35.5802 653.275 34.7102C653.375 34.5002 653.435 34.2702 653.445 34.0302C653.445 33.0302 652.765 32.2702 651.315 32.2702" fill="#02033B"/>
<path fill-rule="evenodd" clip-rule="evenodd" d="M573.575 32.8602C578.135 32.8602 577.945 38.8602 577.945 38.9202C577.985 39.3002 577.705 39.6502 577.325 39.6902C577.325 39.6902 577.315 39.6902 577.305 39.6902C577.245 39.6902 577.195 39.6902 577.135 39.6902H570.335C569.925 39.7102 569.565 39.3902 569.535 38.9802V38.8302C569.615 36.8302 570.145 32.8302 573.535 32.8302M570.265 40.4602H581.435C581.545 39.4602 581.495 38.4502 581.285 37.4602C581.085 36.4102 580.635 35.4102 579.975 34.5702C578.875 33.2402 576.955 32.2402 573.725 32.2402C567.875 32.2402 564.875 35.9702 564.875 41.0502C564.875 46.1302 567.565 49.6602 573.805 49.6602C577.945 49.6602 580.115 47.7202 581.225 44.9802L580.775 44.7602C579.315 47.6602 577.515 48.7602 574.645 48.7602C570.425 48.7602 569.545 44.7602 569.505 41.4002C569.505 41.3702 569.505 41.3302 569.505 41.3002C569.475 40.8802 569.785 40.5002 570.215 40.4702H570.325" fill="#02033B"/>
<path fill-rule="evenodd" clip-rule="evenodd" d="M600.625 56.8302C603.155 56.8302 603.065 60.0702 603.065 60.0802C603.075 60.3002 602.915 60.4802 602.705 60.5102H598.875C598.645 60.5202 598.445 60.3402 598.425 60.1102V60.0402C598.425 58.9302 598.755 56.8502 600.655 56.8402M598.845 61.0602H605.015C605.055 60.5102 605.015 59.9602 604.875 59.4202C604.765 58.8402 604.525 58.2902 604.155 57.8202C603.275 56.8702 601.995 56.3702 600.705 56.4902C598.195 56.2802 595.995 58.1502 595.785 60.6602C595.785 60.6602 595.785 60.6602 595.785 60.6702C595.765 60.9102 595.765 61.1602 595.785 61.4002C595.785 64.3302 597.265 66.1702 600.725 66.1702C602.545 66.3502 604.255 65.2702 604.875 63.5502L604.555 63.4302C604.025 64.8302 602.655 65.7302 601.155 65.6502C598.825 65.6502 598.405 63.4502 598.385 61.5702C598.365 61.3302 598.545 61.1202 598.785 61.1002" fill="#02033B"/>
<path fill-rule="evenodd" clip-rule="evenodd" d="M631.435 32.8502C635.985 32.8502 635.805 38.9002 635.805 38.9202C635.835 39.3102 635.545 39.6502 635.155 39.6902C635.095 39.6902 635.045 39.6902 634.985 39.6902H628.185C627.765 39.7102 627.415 39.3902 627.385 38.9702V38.8702C627.475 36.8702 628.005 32.8702 631.385 32.8702M628.105 40.5002H639.285C639.395 39.5002 639.335 38.4902 639.125 37.5002C638.955 36.4602 638.525 35.4702 637.875 34.6302C636.715 33.2402 634.815 32.2402 631.585 32.2402C625.745 32.2402 622.705 36.0202 622.705 41.1002C622.705 46.1802 625.385 49.7102 631.625 49.7102C635.775 49.7102 637.945 47.7702 639.055 45.0302L638.615 44.8102C637.145 47.7102 635.345 48.8102 632.475 48.8102C628.255 48.8102 627.375 44.8102 627.335 41.4502C627.335 41.4202 627.335 41.3802 627.335 41.3502C627.295 40.9302 627.605 40.5602 628.025 40.5202H628.045H628.155" fill="#02033B"/>
<path fill-rule="evenodd" clip-rule="evenodd" d="M550.295 36.3599H548.595C548.105 36.4199 547.655 36.0599 547.595 35.5699C547.595 35.5699 547.595 35.5699 547.595 35.5599V26.4499C548.295 26.3399 549.015 26.2999 549.725 26.3199C552.385 26.3199 555.435 27.1699 555.435 31.7399C555.435 35.1399 553.635 36.3599 550.275 36.3599M554.435 36.9399C557.575 36.4499 559.805 34.6899 559.785 31.4199C559.785 28.3199 558.065 25.6699 551.785 25.6699H540.875V26.2399H542.065C542.685 26.2099 543.215 26.6799 543.245 27.2999C543.245 27.3799 543.245 27.4499 543.245 27.5299V47.2399C543.345 47.8999 542.895 48.5099 542.245 48.6199H540.875V49.1599H550.095V48.6199H548.985C548.315 48.6999 547.705 48.2299 547.615 47.5599C547.595 47.4499 547.595 47.3299 547.615 47.2199V38.2199C547.615 38.2199 547.615 38.1899 547.615 38.1699C547.615 37.5899 547.845 37.1699 548.615 37.1699H549.875C551.875 37.1699 555.335 38.4699 556.355 43.9799C557.725 51.4299 564.155 53.0399 570.475 52.7699V52.4299C557.785 51.5399 564.305 37.8299 554.475 36.9299" fill="#02033B"/>
<path fill-rule="evenodd" clip-rule="evenodd" d="M582.935 55.6598C583.585 55.7398 584.185 55.2798 584.265 54.6298C584.265 54.6298 584.265 54.6198 584.265 54.6098V54.4998C584.295 53.8298 583.775 53.2698 583.105 53.2398C583.095 53.2398 583.085 53.2398 583.075 53.2398H582.935C582.265 53.1898 581.665 53.6898 581.605 54.3598V54.4598C581.605 55.1198 582.135 55.6698 582.795 55.6698C582.825 55.6698 582.845 55.6698 582.875 55.6698H582.985" fill="#02033B"/>
<path fill-rule="evenodd" clip-rule="evenodd" d="M584.606 65.4509C584.346 65.4409 584.136 65.2209 584.146 64.9509C584.146 64.9509 584.146 64.9509 584.146 64.9409V56.8809L580.616 57.4809L580.966 57.8709L581.576 57.8109V64.9209C581.606 65.1809 581.416 65.4209 581.156 65.4509H580.516V65.8809H585.436V65.4509H584.616H584.606Z" fill="#02033B"/>
<path fill-rule="evenodd" clip-rule="evenodd" d="M594.565 45.1105C594.565 47.3905 592.155 48.2505 590.965 48.1105C588.875 47.8905 588.045 46.2405 588.045 44.3405C587.885 42.8705 588.835 41.5105 590.275 41.1705C591.705 40.6205 593.735 39.9905 594.555 39.5305V45.1105H594.565ZM600.885 47.9105C600.535 48.2405 600.085 48.4505 599.605 48.4905C599.135 48.5305 598.715 48.2005 598.655 47.7305C598.605 46.8505 598.585 37.0005 598.585 37.0005C598.585 35.0005 597.315 32.2305 591.685 32.2305C587.415 32.2305 584.535 34.2305 584.405 36.1605C584.265 37.0405 584.875 37.8705 585.755 38.0105C585.865 38.0205 585.965 38.0205 586.075 38.0105H586.315C586.395 38.0005 586.465 37.9805 586.545 37.9505L586.705 37.9005C587.335 37.5605 587.765 36.9505 587.885 36.2405C588.265 33.9205 589.105 32.7105 591.575 32.7905C594.465 32.8705 594.575 34.4305 594.575 37.0705V37.4305C594.575 37.7405 594.385 38.8705 592.445 39.6605C590.705 40.0505 588.955 40.3605 587.185 40.5705C585.115 40.8905 583.615 42.7305 583.735 44.8205C583.735 47.3605 585.655 49.4705 589.135 49.5705C591.895 49.6505 593.465 48.1505 594.575 47.4205C594.895 48.5505 595.845 49.4005 597.005 49.5805C598.505 49.7905 600.025 49.3305 601.155 48.3305L600.885 47.9105Z" fill="#02033B"/>
<path fill-rule="evenodd" clip-rule="evenodd" d="M615.285 44.1609C615.335 44.7709 615.245 45.3809 615.015 45.9409C614.305 47.5909 612.785 48.0609 611.015 48.0609C607.695 48.0609 606.775 44.5009 606.775 40.6109C606.775 36.2909 607.775 33.2909 611.325 33.2909C612.885 33.2209 614.345 34.0909 615.015 35.5109C615.275 36.2009 615.375 36.9309 615.315 37.6609L615.285 44.1609ZM620.705 48.4109C619.625 48.4109 619.285 47.8809 619.285 46.9809V24.3809L612.625 25.1009V25.7109L615.285 25.5509V34.5509C614.405 33.1709 612.915 32.2909 611.285 32.2009C608.795 32.0309 606.335 32.8809 604.485 34.5609C602.705 36.2809 601.755 38.6909 601.875 41.1609C601.875 46.0509 604.455 49.4709 609.455 49.4709C611.605 49.4709 613.685 48.6809 615.285 47.2409V49.0409H621.285V48.4109H620.705Z" fill="#02033B"/>
<path fill-rule="evenodd" clip-rule="evenodd" d="M575.876 63.1199C576.016 64.2199 575.246 65.2199 574.156 65.3599C573.916 65.3899 573.676 65.3799 573.446 65.3299C571.566 65.3299 571.046 63.3299 571.046 61.1099C571.046 58.6699 571.606 56.9699 573.616 56.9699C574.516 56.9099 575.366 57.4199 575.746 58.2399C575.876 58.6199 575.926 59.0399 575.876 59.4399V63.1199ZM578.946 65.5299C578.336 65.5299 578.136 65.2299 578.136 64.7199V51.9199L574.366 52.3199V52.6699L575.876 52.5799V57.6499C575.376 56.8699 574.536 56.3699 573.616 56.3199C572.206 56.2299 570.816 56.7099 569.766 57.6599C568.746 58.6399 568.206 60.0099 568.276 61.4199C568.276 64.1899 569.746 66.1199 572.576 66.1199C573.796 66.1199 574.976 65.6599 575.876 64.8299V65.8299H579.256V65.4699H578.946V65.5299Z" fill="#02033B"/>
<path fill-rule="evenodd" clip-rule="evenodd" d="M590.475 62.2406C589.365 62.2406 588.735 61.3406 588.665 59.7406C588.595 58.1406 589.505 57.2906 590.395 57.2906C591.205 57.2906 592.125 57.8406 592.095 59.7406C592.095 61.2806 591.605 62.2306 590.455 62.2406M590.575 65.9206C592.435 65.9206 593.455 66.3406 593.395 67.7106C593.405 68.9806 592.385 70.0206 591.115 70.0406C591.015 70.0406 590.925 70.0406 590.825 70.0406C589.145 70.0406 588.115 69.1506 588.075 67.6406C588.055 67.1506 588.275 66.6706 588.675 66.3806C589.235 66.0006 589.925 65.8506 590.595 65.9406M593.595 56.4806C594.235 56.4806 594.215 56.9406 594.785 57.2106C595.265 57.4306 595.835 57.2406 596.085 56.7806C596.145 56.6606 596.175 56.5306 596.185 56.3906C596.185 55.8306 595.805 55.3906 595.005 55.3906C593.955 55.4906 593.005 56.0706 592.435 56.9606C591.835 56.7406 591.205 56.6306 590.565 56.6206C587.625 56.6206 586.415 57.7906 586.435 59.7206C586.425 61.1106 587.415 62.3006 588.775 62.5506C587.675 62.7006 586.775 63.3406 586.775 64.1006C586.775 65.1906 588.215 65.6906 589.045 65.7506C588.245 65.8306 586.485 65.8706 586.365 67.7506C586.245 69.6306 588.235 70.6606 590.455 70.6806C594.095 70.6806 595.515 69.0806 595.515 66.9806C595.515 64.8806 593.765 64.2306 591.785 64.2306H590.015C588.705 64.2306 588.305 63.7906 588.305 63.4706C588.305 62.9406 588.895 62.7206 589.145 62.6406C589.395 62.5606 590.145 62.7006 590.365 62.7006C592.155 62.7006 594.365 61.9706 594.365 59.7006C594.355 59.2706 594.255 58.8406 594.075 58.4506L593.985 58.2806C593.915 58.1706 593.835 58.0706 593.755 57.9706L593.645 57.8506L593.295 57.5106C593.125 57.3906 592.955 57.2706 592.775 57.1606C592.935 56.8206 593.235 56.5706 593.595 56.4706" fill="#02033B"/>
</g>
</g>
<g clip-path="url(#clip9_728_17706)">
<g clip-path="url(#clip10_728_17706)">
<path fill-rule="evenodd" clip-rule="evenodd" d="M820.546 52.3698C818.246 54.3298 815.306 55.3998 812.286 55.3698C806.006 55.3698 801.936 50.9198 801.936 44.0298C801.936 40.0898 802.756 37.4798 804.676 35.3398C806.396 33.3598 808.936 32.2698 811.556 32.3898C813.886 32.3198 816.156 33.1698 817.876 34.7398C819.876 36.7898 820.786 39.7398 820.786 44.3198V45.6498H808.146V45.8198C808.146 49.1998 809.806 51.1298 812.766 51.1298C814.816 51.0898 816.796 50.3198 818.326 48.9498L820.546 52.3698ZM814.876 41.4598V41.2198C814.996 40.0798 814.756 38.9298 814.196 37.9298C813.656 37.0698 812.686 36.5798 811.676 36.6498C809.496 36.6498 808.256 38.3598 808.256 41.3998V41.4798L814.876 41.4598Z" fill="#02033B"/>
<path fill-rule="evenodd" clip-rule="evenodd" d="M835.294 36.8415H831.614V47.8415C831.614 50.6215 832.124 51.3515 834.094 51.3515C834.794 51.3115 835.484 51.1615 836.144 50.9315L836.874 54.3515C835.404 55.0015 833.814 55.3415 832.204 55.3515C829.304 55.3515 826.984 54.0715 826.304 52.1515C825.944 51.0615 825.814 49.9015 825.924 48.7615V36.8315H823.744V32.9015H825.924C825.884 31.1715 825.954 29.4415 826.134 27.7215L831.954 26.2715C831.734 28.4715 831.614 30.6915 831.614 32.9015H836.754L835.294 36.8415Z" fill="#02033B"/>
<path fill-rule="evenodd" clip-rule="evenodd" d="M793.245 25.0707L793.375 37.2207C793.375 39.2207 793.625 43.0807 793.845 45.4007C792.985 42.5107 791.895 39.6807 790.595 36.9607L784.875 25.0607H778.265V38.5707L763.185 6.2207L706.875 32.4807L733.125 88.7907L789.435 62.5307L783.985 50.8507L783.875 42.1007C783.875 39.6207 783.785 36.1007 783.575 33.6707C784.135 35.5107 785.935 39.6707 787.575 43.4307L792.675 54.8107H798.915V25.0707H793.245ZM760.955 54.5007H756.155V48.1007H759.495C764.005 48.1007 767.855 45.6307 767.855 39.9707C767.855 34.7707 764.425 31.8407 759.575 31.8407H755.345V46.3507L749.875 54.5007H718.475L733.875 31.8507H719.795L724.075 25.4507H747.305L732.005 48.1007H747.795V25.4507H760.955C768.975 25.1607 775.715 31.4207 776.005 39.4407C776.295 47.4607 770.035 54.2007 762.015 54.4907C761.875 54.4907 761.725 54.4907 761.585 54.4907H760.955" fill="#02033B"/>
</g>
</g>
<g clip-path="url(#clip11_728_17706)">
<g clip-path="url(#clip12_728_17706)">
<path d="M918.565 41.4453V38.4453H905.975V41.4453H910.355V53.4453H905.975V56.4453H918.565V53.4453H913.775V41.4453H918.565Z" fill="#02033B"/>
<path d="M939.465 41.5646H934.465V46.5046C934.465 46.5046 937.175 46.4246 939.405 46.4246C941.635 46.4246 942.195 45.9446 942.195 43.7146C942.195 41.1646 939.485 41.5546 939.485 41.5546" fill="#02033B"/>
<path d="M924.975 60.7644H950.975V34.2344H924.975V60.7644ZM945.765 52.0744V56.2344H942.175V52.3344C942.175 52.3344 942.175 49.3344 940.105 49.3344C938.035 49.3344 934.445 49.4144 934.445 49.4144V56.3444H930.945V38.4544H941.305C943.635 38.3244 945.635 40.1044 945.765 42.4444C945.765 42.4444 945.765 42.4444 945.765 42.4544C945.785 42.6644 945.785 42.8744 945.765 43.0844C945.765 47.9444 943.065 48.1844 943.065 48.1844C943.065 48.1844 945.765 48.3444 945.765 52.0844" fill="#02033B"/>
<path d="M955.795 38.4551V41.4551H958.265V53.4551H955.795V56.4051H971.015V50.5651H968.015V53.4351H961.535V48.5751H966.315V45.6251H961.535V41.4051H967.745V44.2351H971.015V38.4551H955.795Z" fill="#02033B"/>
<path d="M991.725 41.4851H986.305V53.4851H991.965C994.675 53.4851 994.755 49.9751 994.755 49.9751V45.3051C994.755 41.2451 991.755 41.4851 991.755 41.4851" fill="#02033B"/>
<path d="M976.875 60.7644H1002.88V34.2344H976.875V60.7644ZM992.175 56.5344C985.645 56.5344 982.695 56.6144 982.695 56.6144V38.5344H990.415C990.415 38.5344 998.415 37.6544 998.415 44.8244V49.8244C998.415 49.8244 998.735 56.5144 992.205 56.5144" fill="#02033B"/>
<path d="M872.875 60.7644H898.925V34.2344H872.875V60.7644ZM893.585 56.3744H889.125L886.255 43.3744L883.145 56.4544H878.765L875.105 38.5344H878.695L881.155 52.1544L884.345 38.5344L888.245 38.6144L891.435 52.3944L893.875 38.5344H897.295L893.585 56.3744Z" fill="#02033B"/>
</g>
</g>
</g>
<defs>
<clipPath id="clip0_728_17706">
<rect width="1045.75" height="95" fill="white"/>
</clipPath>
<clipPath id="clip1_728_17706">
<rect width="130" height="95" fill="white" transform="translate(42.875)"/>
</clipPath>
<clipPath id="clip2_728_17706">
<rect width="129.428" height="95" fill="white" transform="translate(43.1602)"/>
</clipPath>
<clipPath id="clip3_728_17706">
<rect width="130" height="95" fill="white" transform="translate(208.875)"/>
</clipPath>
<clipPath id="clip4_728_17706">
<rect width="130" height="19.62" fill="white" transform="translate(208.875 37.6895)"/>
</clipPath>
<clipPath id="clip5_728_17706">
<rect width="130" height="95" fill="white" transform="translate(374.875)"/>
</clipPath>
<clipPath id="clip6_728_17706">
<rect width="130" height="42.52" fill="white" transform="translate(374.875 26.2402)"/>
</clipPath>
<clipPath id="clip7_728_17706">
<rect width="130" height="95" fill="white" transform="translate(540.875)"/>
</clipPath>
<clipPath id="clip8_728_17706">
<rect width="130" height="46.52" fill="white" transform="translate(540.875 24.2402)"/>
</clipPath>
<clipPath id="clip9_728_17706">
<rect width="130" height="95" fill="white" transform="translate(706.875)"/>
</clipPath>
<clipPath id="clip10_728_17706">
<rect width="130" height="82.56" fill="white" transform="translate(706.875 6.2207)"/>
</clipPath>
<clipPath id="clip11_728_17706">
<rect width="130" height="95" fill="white" transform="translate(872.875)"/>
</clipPath>
<clipPath id="clip12_728_17706">
<rect width="130" height="26.53" fill="white" transform="translate(872.875 34.2344)"/>
</clipPath>
</defs>
</svg>
