<svg width="436" height="233" viewBox="0 0 436 233" fill="none" xmlns="http://www.w3.org/2000/svg">
<g clip-path="url(#clip0_728_18030)">
<path d="M259.249 146.32C256.875 145.14 254.141 144.905 251.6 145.664C249.059 146.423 246.902 148.119 245.564 150.409C244.589 152.101 243.556 153.737 242.466 155.315C240.626 158.153 238.644 160.896 236.527 163.534C232.519 168.452 226.723 171.577 220.413 172.223C214.102 172.868 207.793 170.982 202.873 166.977C201.62 165.94 200.467 164.788 199.43 163.534C197.365 160.952 195.385 158.241 193.491 155.444C183.825 140.543 177.132 123.913 173.781 106.469C171.852 96.9037 170.629 87.2089 170.123 77.4637C169.795 71.2069 171.701 65.0371 175.5 60.0553C179.299 55.0734 184.746 51.6037 190.866 50.2654H191.168C200.038 48.3996 209.024 47.1343 218.065 46.4783C227.09 47.1221 236.061 48.3729 244.919 50.2223H245.177C251.297 51.5706 256.739 55.0504 260.531 60.0405C264.323 65.0305 266.217 71.2058 265.877 77.4637C265.877 79.3572 265.877 81.2938 265.489 83.3165C265.36 84.6919 265.505 86.0794 265.916 87.3981C266.328 88.7169 266.998 89.9406 267.887 90.998C268.776 92.0553 269.867 92.9252 271.095 93.557C272.324 94.1887 273.666 94.5697 275.043 94.6778L300.52 96.7005C301.889 96.8183 303.267 96.6642 304.576 96.2471C305.885 95.8299 307.098 95.158 308.146 94.27C309.194 93.382 310.056 92.2954 310.682 91.0729C311.309 89.8503 311.687 88.516 311.795 87.1466C313.018 72.1468 312.902 57.068 311.451 42.0887C311.116 38.5813 310.079 35.1772 308.4 32.0794C306.722 28.9815 304.437 26.2531 301.682 24.0569C277.755 5.20742 234.117 0.989958 221.507 0.000146151C219.172 -0.171924 216.828 -0.171924 214.493 0.000146136C201.883 0.989958 158.246 5.20742 134.318 24.0569C131.564 26.2576 129.277 28.9862 127.592 32.0827C125.907 35.1792 124.858 38.5811 124.506 42.0887C121.407 73.8487 118.481 177.951 206.273 229.163C209.898 231.276 214.019 232.39 218.215 232.39C222.411 232.39 226.532 231.276 230.157 229.163C253.627 215.516 273.098 195.941 286.62 172.4C287.317 171.213 287.773 169.901 287.963 168.538C288.152 167.175 288.07 165.788 287.722 164.457C287.374 163.126 286.767 161.876 285.936 160.78C285.104 159.684 284.064 158.762 282.876 158.069L282.23 157.725L259.249 146.32Z" fill="#FDB235"/>
</g>
<defs>
<clipPath id="clip0_728_18030">
<rect width="189.226" height="232.391" fill="white" transform="translate(123.387)"/>
</clipPath>
</defs>
</svg>
