<svg width="157" height="54" viewBox="0 0 157 54" fill="none" xmlns="http://www.w3.org/2000/svg">
<g clip-path="url(#clip0_728_18047)">
<path d="M31.484 33.982C30.9294 33.713 30.2929 33.6665 29.7051 33.852C29.1172 34.0374 28.6226 34.4407 28.3227 34.9792C28.0834 35.3682 27.844 35.7471 27.5947 36.1161C27.167 36.7569 26.7077 37.376 26.2185 37.971C25.6954 38.6043 25.0389 39.1142 24.2958 39.4642C23.5528 39.8142 22.7416 39.9957 21.9202 39.9957C21.0989 39.9957 20.2877 39.8142 19.5446 39.4642C18.8016 39.1142 18.1451 38.6043 17.622 37.971C17.1433 37.3727 16.6846 36.7444 16.2458 36.0962C14.0037 32.6452 12.4557 28.7904 11.6883 24.7473C11.233 22.5316 10.9463 20.2846 10.8306 18.0257C10.7545 16.5758 11.1961 15.146 12.0766 13.9916C12.957 12.8371 14.2191 12.0331 15.6374 11.7229H15.7172C17.7694 11.2906 19.8485 10.9974 21.9402 10.8453C24.0316 10.9945 26.1107 11.2844 28.1631 11.713H28.2329C29.6494 12.0274 30.9082 12.8347 31.7849 13.9908C32.6616 15.147 33.0992 16.5769 33.0198 18.0257C33.0198 18.4645 33.0198 18.9132 32.9301 19.382C32.9 19.7007 32.9336 20.0222 33.029 20.3278C33.1244 20.6334 33.2796 20.917 33.4857 21.162C33.6917 21.407 33.9445 21.6086 34.2292 21.755C34.5139 21.9014 34.8249 21.9897 35.144 22.0147L41.0478 22.4835C41.365 22.5108 41.6844 22.475 41.9877 22.3784C42.291 22.2817 42.5722 22.126 42.815 21.9202C43.0579 21.7145 43.2576 21.4627 43.4028 21.1794C43.5479 20.8961 43.6356 20.5868 43.6607 20.2695C43.9416 16.797 43.9182 13.3065 43.5909 9.83809C43.5093 9.02526 43.2661 8.23693 42.8756 7.51938C42.4852 6.80182 41.9553 6.1695 41.3171 5.65953C35.7723 1.28152 25.67 0.304199 22.738 0.0748275C22.1969 0.0349533 21.6536 0.0349533 21.1125 0.0748275C18.1905 0.304199 8.07815 1.28152 2.53334 5.64956C1.8949 6.1585 1.36544 6.79074 0.976516 7.50863C0.587591 8.22651 0.347155 9.01534 0.269537 9.82811C-0.458469 17.188 -1.12664 41.3119 19.1578 53.1794C19.9979 53.6691 20.9528 53.9271 21.9252 53.9271C22.8976 53.9271 23.8526 53.6691 24.6926 53.1794C30.1506 50.0218 34.6832 45.4857 37.8366 40.0254C38.1594 39.4684 38.2483 38.8061 38.0838 38.1837C37.9193 37.5612 37.5149 37.0294 36.959 36.7045L36.8095 36.6247L31.484 33.982Z" fill="#FFC247"/>
<path d="M95.8867 44.5341C89.7934 44.5341 85.4253 40.2458 85.4253 33.8434C85.3814 32.4913 85.6048 31.1439 86.0826 29.8784C86.5603 28.6128 87.2831 27.454 88.2096 26.4682C89.136 25.4825 90.2478 24.6893 91.4814 24.134C92.7149 23.5788 94.0459 23.2724 95.398 23.2324H96.0562C102.538 23.2324 106.159 27.8996 106.159 34.352C106.159 34.5813 106.159 35.0501 106.159 35.5487H91.1995C91.3254 36.7291 91.8845 37.8209 92.7686 38.613C93.6528 39.4051 94.7993 39.8412 95.9864 39.8369C96.7382 39.9005 97.4935 39.7664 98.1775 39.4481C98.8615 39.1297 99.4503 38.6381 99.8857 38.0219H105.869C104.633 41.8016 101.082 44.5441 95.9465 44.5441M100.494 31.8488C100.43 30.7016 99.9252 29.6235 99.0854 28.8394C98.2455 28.0552 97.1353 27.6257 95.9864 27.6403C94.8067 27.616 93.6608 28.0347 92.7746 28.8138C91.8885 29.5929 91.3265 30.6758 91.1995 31.8488H100.494Z" fill="#02033B"/>
<path d="M113.808 27.0514C114.965 24.5881 117.278 23.6208 119.901 23.541V29.1357C118.845 29.0865 117.789 29.2043 116.77 29.4847C115.344 29.9435 113.997 30.9108 113.997 35.1592V43.8454H108.014V23.9H113.798L113.808 27.0514Z" fill="#02033B"/>
<path d="M133.285 39.1087H134.481L136.536 43.8158H131.639C125.975 43.9355 124.818 40.5348 124.818 35.9075V29.146H121.457V24.0101H124.818V19.5224L130.642 16.9395V24.0101H134.731V29.1859H130.642V34.9402C130.642 37.6427 130.752 39.1387 133.265 39.1387" fill="#02033B"/>
<path d="M135.549 33.8425C135.549 27.0511 140.635 23.2715 146.309 23.2715C151.984 23.2715 157 27.0511 157 33.8425C157 40.6339 151.944 44.4934 146.309 44.4934C140.675 44.4934 135.549 40.6738 135.549 33.8425ZM146.309 39.8261C149.361 39.8261 151.296 37.1235 151.296 33.8425C151.296 30.5615 149.371 27.8589 146.309 27.8589C143.248 27.8589 141.323 30.5615 141.323 33.8425C141.323 37.1235 143.258 39.8261 146.309 39.8261Z" fill="#02033B"/>
<path d="M70.9461 44.5332C63.0378 44.5332 56.9844 39.0881 56.9844 30.2922C57.0143 21.6558 63.1076 16.0312 71.0558 16.0312C77.9569 16.0312 82.4746 19.422 84.2098 25.5252H78.1165C76.7303 22.4337 74.1274 21.2769 71.0558 21.2769C66.6978 21.2769 63.1874 24.9069 63.1874 30.3421C63.1874 35.7772 66.7377 39.3175 71.0558 39.3175C74.8754 39.3175 76.9597 37.8515 78.0367 35.119H84.0901C82.5543 41.2123 77.6478 44.5631 70.8963 44.5631" fill="#02033B"/>
</g>
<defs>
<clipPath id="clip0_728_18047">
<rect width="157" height="53.8525" fill="white" transform="translate(0 0.0742188)"/>
</clipPath>
</defs>
</svg>
