<svg width="16" height="11" viewBox="0 0 16 11" fill="none" xmlns="http://www.w3.org/2000/svg">
<g clip-path="url(#clip0_728_17919)">
<path d="M10.2008 0.307737C10.0655 0.445388 9.98966 0.630699 9.98966 0.823737C9.98966 1.01677 10.0655 1.20209 10.2008 1.33974L13.6008 4.76374H0.720832C0.618276 4.753 0.514608 4.76393 0.416549 4.79583C0.318489 4.82773 0.228226 4.87987 0.151609 4.94888C0.0749933 5.0179 0.0137341 5.10224 -0.0281974 5.19645C-0.0701289 5.29065 -0.0917969 5.39262 -0.0917969 5.49574C-0.0917969 5.59885 -0.0701289 5.70082 -0.0281974 5.79502C0.0137341 5.88923 0.0749933 5.97357 0.151609 6.04259C0.228226 6.1116 0.318489 6.16375 0.416549 6.19564C0.514608 6.22754 0.618276 6.23847 0.720832 6.22774H13.6008L10.1928 9.69974C10.0594 9.83836 9.98482 10.0233 9.98482 10.2157C9.98482 10.4082 10.0594 10.5931 10.1928 10.7317C10.259 10.798 10.3375 10.8506 10.424 10.8865C10.5105 10.9223 10.6032 10.9408 10.6968 10.9408C10.7905 10.9408 10.8832 10.9223 10.9697 10.8865C11.0561 10.8506 11.1347 10.798 11.2008 10.7317L15.7928 6.01974C15.8552 5.95076 15.9065 5.87249 15.9448 5.78774C15.9833 5.69949 16.0024 5.604 16.0008 5.50774C16.0016 5.4129 15.9836 5.31885 15.9479 5.23099C15.9122 5.14312 15.8595 5.06317 15.7928 4.99574L11.2008 0.323737C11.0739 0.193876 10.9022 0.117408 10.7208 0.109973C10.5394 0.102537 10.3619 0.164697 10.2248 0.283737L10.2008 0.307737Z" fill="white"/>
</g>
<defs>
<clipPath id="clip0_728_17919">
<rect width="16" height="10.8" fill="white" transform="translate(0 0.0996094)"/>
</clipPath>
</defs>
</svg>
