<svg width="20" height="14" viewBox="0 0 20 14" fill="none" xmlns="http://www.w3.org/2000/svg">
<g clip-path="url(#clip0_728_17693)">
<path d="M12.7506 0.509671C12.5814 0.681734 12.4866 0.913373 12.4866 1.15467C12.4866 1.39597 12.5814 1.62761 12.7506 1.79967L17.0006 6.07967H0.900552C0.772357 6.06625 0.642772 6.07992 0.520197 6.11979C0.397623 6.15966 0.284794 6.22484 0.189024 6.31111C0.0932533 6.39737 0.0166793 6.5028 -0.035735 6.62056C-0.0881494 6.73832 -0.115234 6.86578 -0.115234 6.99467C-0.115234 7.12357 -0.0881494 7.25102 -0.035735 7.36878C0.0166793 7.48654 0.0932533 7.59197 0.189024 7.67824C0.284794 7.7645 0.397623 7.82969 0.520197 7.86955C0.642772 7.90942 0.772357 7.92309 0.900552 7.90967H17.0006L12.7406 12.2497C12.5737 12.423 12.4805 12.6541 12.4805 12.8947C12.4805 13.1352 12.5737 13.3664 12.7406 13.5397C12.8232 13.6225 12.9214 13.6882 13.0295 13.7331C13.1376 13.7779 13.2535 13.801 13.3706 13.801C13.4876 13.801 13.6035 13.7779 13.7116 13.7331C13.8197 13.6882 13.9179 13.6225 14.0006 13.5397L19.7406 7.64967C19.8186 7.56345 19.8827 7.46561 19.9306 7.35967C19.9787 7.24937 20.0026 7.13001 20.0006 7.00967C20.0015 6.89113 19.979 6.77356 19.9344 6.66373C19.8898 6.5539 19.8239 6.45397 19.7406 6.36967L14.0006 0.529671C13.8419 0.367345 13.6273 0.27176 13.4005 0.262466C13.1737 0.253172 12.9519 0.330871 12.7806 0.479671L12.7506 0.509671Z" fill="black"/>
</g>
<defs>
<clipPath id="clip0_728_17693">
<rect width="20" height="13.5" fill="white" transform="translate(0 0.25)"/>
</clipPath>
</defs>
</svg>
