<svg width="348" height="72" viewBox="0 0 348 72" fill="none" xmlns="http://www.w3.org/2000/svg">
<g clip-path="url(#clip0_728_17983)">
<path d="M32.14 0H3.86C2.83626 0 1.85446 0.406677 1.13057 1.13057C0.406677 1.85446 0 2.83626 0 3.86L0 32.14C0 33.1637 0.406677 34.1455 1.13057 34.8694C1.85446 35.5933 2.83626 36 3.86 36H32.14C33.1637 36 34.1455 35.5933 34.8694 34.8694C35.5933 34.1455 36 33.1637 36 32.14V3.86C36 2.83626 35.5933 1.85446 34.8694 1.13057C34.1455 0.406677 33.1637 0 32.14 0V0ZM28.21 12.76V13.44C28.2245 15.3962 27.8534 17.3361 27.1178 19.1489C26.3823 20.9616 25.2967 22.6117 23.9232 24.0047C22.5497 25.3977 20.9151 26.5064 19.1129 27.2674C17.3107 28.0285 15.3762 28.4269 13.42 28.44C13.3504 28.45 13.2796 28.45 13.21 28.44C10.3425 28.4476 7.53362 27.6282 5.12 26.08C5.54159 26.1282 5.96566 26.1516 6.39 26.15C8.7854 26.1652 11.1153 25.3686 13 23.89C11.8868 23.8862 10.8035 23.53 9.90526 22.8725C9.00703 22.215 8.34007 21.2899 8 20.23C8.78802 20.3672 9.59634 20.3331 10.37 20.13C9.19123 19.8827 8.13304 19.2384 7.37223 18.3047C6.61143 17.3709 6.19411 16.2044 6.19 15V14.93C6.9148 15.3403 7.72769 15.5701 8.56 15.6C7.83928 15.1169 7.24873 14.4635 6.84059 13.6979C6.43245 12.9322 6.2193 12.0777 6.22 11.21C6.21338 10.2756 6.45865 9.35677 6.93 8.55C8.261 10.1669 9.91584 11.4872 11.788 12.4259C13.6601 13.3645 15.7081 13.9007 17.8 14C17.5339 12.867 17.6496 11.6779 18.1291 10.6174C18.6086 9.55696 19.425 8.68464 20.4514 8.13608C21.4778 7.58751 22.6567 7.39344 23.8048 7.58404C24.9529 7.77463 26.0059 8.33921 26.8 9.19C27.9693 8.98445 29.0953 8.58207 30.13 8C29.7383 9.21543 28.9171 10.2464 27.82 10.9C28.8548 10.7751 29.8656 10.4988 30.82 10.08C30.1094 11.1158 29.2266 12.0222 28.21 12.76Z" fill="white"/>
</g>
<g clip-path="url(#clip1_728_17983)">
<path d="M107.734 0H79.4537C78.43 0 77.4482 0.406677 76.7243 1.13057C76.0004 1.85446 75.5938 2.83626 75.5938 3.86V32.14C75.5938 33.1637 76.0004 34.1455 76.7243 34.8694C77.4482 35.5933 78.43 36 79.4537 36H90.4537V23.76H85.4137V18H90.4838V13.61C90.4838 8.61 93.4837 5.86 98.0037 5.86C99.5013 5.87978 100.995 6.01014 102.474 6.25V11.15H99.9538C97.4838 11.15 96.7038 12.68 96.7038 14.26V18H102.234L101.354 23.76H96.7038V36H107.704C108.213 36.004 108.718 35.907 109.19 35.7148C109.662 35.5226 110.091 35.2389 110.453 34.8801C110.814 34.5213 111.101 34.0944 111.297 33.6241C111.493 33.1538 111.594 32.6494 111.594 32.14V3.86C111.594 2.83626 111.187 1.85446 110.463 1.13057C109.739 0.406677 108.757 0 107.734 0V0Z" fill="white"/>
</g>
<g clip-path="url(#clip2_728_17983)">
<path d="M183.327 36H155.047C154.024 36 153.042 35.5933 152.318 34.8694C151.594 34.1455 151.188 33.1637 151.188 32.14V3.86C151.188 2.83626 151.594 1.85446 152.318 1.13057C153.042 0.406677 154.024 0 155.047 0H183.327C184.351 0 185.333 0.406677 186.057 1.13057C186.781 1.85446 187.188 2.83626 187.188 3.86V32.14C187.188 33.1637 186.781 34.1455 186.057 34.8694C185.333 35.5933 184.351 36 183.327 36ZM168.827 9.14C168.747 9.14 161.347 9.14 159.507 9.64C159.001 9.77791 158.54 10.0463 158.169 10.4183C157.799 10.7903 157.533 11.2529 157.398 11.76C157.057 13.6676 156.889 15.6022 156.898 17.54C156.889 19.4778 157.056 21.4124 157.398 23.32C157.538 23.8215 157.806 24.278 158.176 24.6444C158.546 25.0109 159.005 25.2747 159.507 25.41C161.347 25.91 168.747 25.91 168.827 25.91C168.907 25.91 176.308 25.91 178.138 25.41C178.643 25.2803 179.105 25.0183 179.476 24.651C179.847 24.2837 180.113 23.8243 180.247 23.32C180.594 21.4131 180.761 19.478 180.747 17.54C180.761 15.6053 180.594 13.6735 180.247 11.77C180.118 11.267 179.86 10.8063 179.499 10.4329C179.138 10.0595 178.686 9.78633 178.188 9.64C176.308 9.15 168.897 9.14 168.827 9.14ZM166.387 21.14V14L172.618 17.55L166.387 21.09V21.14Z" fill="white"/>
</g>
<defs>
<clipPath id="clip0_728_17983">
<rect width="36" height="36" fill="white"/>
</clipPath>
<clipPath id="clip1_728_17983">
<rect width="36" height="36" fill="white" transform="translate(75.5938)"/>
</clipPath>
<clipPath id="clip2_728_17983">
<rect width="36" height="36" fill="white" transform="translate(151.188)"/>
</clipPath>
</defs>
</svg>
